<svg xmlns="http://www.w3.org/2000/svg" viewBox="0 0 920 270" role="img" aria-labelledby="title desc">
  <title id="title">Maison des Pierres Cognac</title>
  <desc id="desc">Logo horizontal Maison des Pierres Cognac avec maison centree.</desc>
  <rect width="920" height="270" fill="#fffdfa" />
  <g fill="none" stroke="#15130f" stroke-linecap="round" stroke-linejoin="round">
    <path d="M292 92 C343 54 406 38 466 39 C528 40 590 58 638 93" stroke-width="5" opacity=".82" />
    <path d="M360 91 L460 45 L560 91" stroke-width="5" />
    <path d="M383 91 H537 V153 H383 Z" stroke-width="4" />
    <path d="M404 91 V153 M430 91 V153 M456 91 V153 M482 91 V153 M508 91 V153" stroke-width="3" opacity=".8" />
    <path d="M284 129 C226 122 176 131 135 153" stroke-width="4" opacity=".45" />
    <path d="M636 129 C694 122 744 131 785 153" stroke-width="4" opacity=".45" />
  </g>
  <text
    x="460"
    y="190"
    fill="#15130f"
    font-family="Inter, Arial, sans-serif"
    font-size="58"
    font-weight="800"
    letter-spacing="7"
    text-anchor="middle"
  >MAISON DES PIERRES</text>
  <g fill="none" stroke="#15130f" stroke-linecap="round" opacity=".62">
    <path d="M341 229 H414" stroke-width="2.5" />
    <path d="M506 229 H579" stroke-width="2.5" />
  </g>
  <text
    x="460"
    y="238"
    fill="#15130f"
    font-family="Inter, Arial, sans-serif"
    font-size="28"
    font-weight="700"
    letter-spacing="16"
    text-anchor="middle"
  >COGNAC</text>
</svg>
